<svg xmlns="http://www.w3.org/2000/svg" viewBox="0 0 24 24" fill="none">
  <mask id="calendar-cut-mask">
    <rect width="24" height="24" fill="black" />
    <path d="M6 4.5C6 3.95 6.45 3.5 7 3.5C7.55 3.5 8 3.95 8 4.5V6H16V4.5C16 3.95 16.45 3.5 17 3.5C17.55 3.5 18 3.95 18 4.5V6.1C19.15 6.33 20 7.35 20 8.58V18C20 19.1 19.1 20 18 20H6C4.9 20 4 19.1 4 18V8.58C4 7.35 4.85 6.33 6 6.1V4.5Z" fill="white"/>
    <path d="M4 9H20" stroke="black" stroke-width="1.7" stroke-linecap="round"/>
  </mask>
  <rect width="24" height="24" fill="currentColor" mask="url(#calendar-cut-mask)"/>
</svg>